<svg xmlns="http://www.w3.org/2000/svg" version="1.1" xmlns:xlink="http://www.w3.org/1999/xlink" xmlns:svgjs="http://svgjs.dev/svgjs" width="1000" height="148" viewBox="0 0 1000 148"><g transform="matrix(1,0,0,1,-0.6060606060606233,-0.18809770085512412)"><svg viewBox="0 0 396 59" data-background-color="#fafafa" preserveAspectRatio="xMidYMid meet" height="148" width="1000" xmlns="http://www.w3.org/2000/svg" xmlns:xlink="http://www.w3.org/1999/xlink"><g id="tight-bounds" transform="matrix(1,0,0,1,0.2400000000000091,0.07498489425981347)"><svg viewBox="0 0 395.52 58.850030211480366" height="58.850030211480366" width="395.52"><g><svg viewBox="0 0 395.52 58.850030211480366" height="58.850030211480366" width="395.52"><g><svg viewBox="0 0 395.52 58.850030211480366" height="58.850030211480366" width="395.52"><g id="textblocktransform"><svg viewBox="0 0 395.52 58.850030211480366" height="58.850030211480366" width="395.52" id="textblock"><g><svg viewBox="0 0 395.52 58.850030211480366" height="58.850030211480366" width="395.52"><g transform="matrix(1,0,0,1,0,0)"><svg width="395.52" viewBox="0.4 -32.05 264.77000000000004 39.4" height="58.850030211480366" data-palette-color="#130912"><path d="M18.8-31.05L24.5 0 16.15 0 15.2-4.9 9.3-4.9 8.35 0 0.4 0 6.1-31.05 18.8-31.05ZM10.4-10.75L14.25-10.75 12.5-21.85 12.15-21.85 10.4-10.75ZM25.1-16.88Q25.1-20.5 27.32-22.53 29.55-24.55 33.45-24.55 37.35-24.55 41.35-23.55L41.35-23.55 40.5-16.6Q35.4-17.75 33.65-17.75L33.65-17.75Q32.6-17.75 32.6-16.9L32.6-16.9Q32.6-16.35 33.75-15.9L33.75-15.9Q37.75-14.45 39.77-12.6 41.8-10.75 41.8-7.05 41.8-3.35 39.9-1.43 38 0.5 34.07 0.5 30.15 0.5 26.25-0.5L26.25-0.5 26.8-7.25Q31.8-5.9 33.27-5.9 34.75-5.9 34.75-6.6 34.75-7.3 33.65-7.7L33.65-7.7Q29.2-9.4 27.15-11.33 25.1-13.25 25.1-16.88ZM61.55-17.7L61.55-17.7 61.3-7.35Q61.3-6.4 61.77-6.08 62.25-5.75 63.4-5.75L63.4-5.75 62.65 0.3Q59.75 0.5 59.45 0.5L59.45 0.5Q55.75 0.5 54.75-2.05L54.75-2.05 54.5-2.05Q52.65 0.5 48.8 0.5L48.8 0.5Q45.85 0.5 44.27-1.4 42.7-3.3 42.7-6.6L42.7-6.6Q42.7-10.75 45.27-12.35 47.85-13.95 53.4-14.45L53.4-14.45 53.4-15.65Q53.4-17.05 52-17.05L52-17.05Q49.6-17.05 44.5-15.6L44.5-15.6 43.25-22.9Q49.65-24.55 53.9-24.55 58.15-24.55 59.85-22.9 61.55-21.25 61.55-17.7ZM51.9-5.35L51.9-5.35Q53.75-5.35 53.75-7.3L53.75-7.3 53.75-9.75Q51.9-9.5 51.12-8.97 50.35-8.45 50.35-7.2L50.35-7.2Q50.35-5.35 51.9-5.35ZM87.24-5.75L86.49 0.3 83.14 0.5Q79.29 0.5 78.44-2.05L78.44-2.05 78.19-2.05Q76.54 0.5 73.14 0.5L73.14 0.5Q68.64 0.5 66.82-2.65 64.99-5.8 64.99-12.03 64.99-18.25 67.04-21.4 69.09-24.55 72.94-24.55L72.94-24.55Q75.59-24.55 77.04-23.3L77.04-23.3 77.04-32.05 85.39-32.05 85.39-7.35Q85.39-6.4 85.79-6.08 86.19-5.75 87.24-5.75L87.24-5.75ZM75.17-17.5Q74.09-17.5 73.74-16.23 73.39-14.95 73.39-12.58 73.39-10.2 73.44-9.35 73.49-8.5 73.67-7.63 73.84-6.75 74.22-6.43 74.59-6.1 75.47-6.1 76.34-6.1 77.29-6.55L77.29-6.55 77.29-16.9Q76.24-17.5 75.17-17.5ZM107.19-17.7L107.19-17.7 106.94-7.35Q106.94-6.4 107.42-6.08 107.89-5.75 109.04-5.75L109.04-5.75 108.29 0.3Q105.39 0.5 105.09 0.5L105.09 0.5Q101.39 0.5 100.39-2.05L100.39-2.05 100.14-2.05Q98.29 0.5 94.44 0.5L94.44 0.5Q91.49 0.5 89.92-1.4 88.34-3.3 88.34-6.6L88.34-6.6Q88.34-10.75 90.92-12.35 93.49-13.95 99.04-14.45L99.04-14.45 99.04-15.65Q99.04-17.05 97.64-17.05L97.64-17.05Q95.24-17.05 90.14-15.6L90.14-15.6 88.89-22.9Q95.29-24.55 99.54-24.55 103.79-24.55 105.49-22.9 107.19-21.25 107.19-17.7ZM97.54-5.35L97.54-5.35Q99.39-5.35 99.39-7.3L99.39-7.3 99.39-9.75Q97.54-9.5 96.77-8.97 95.99-8.45 95.99-7.2L95.99-7.2Q95.99-5.35 97.54-5.35ZM140.69-31.05L140.19-23.5 134.39-23.5 134.39 0 125.84 0 125.84-23.5 119.69-23.5 120.19-31.05 140.69-31.05ZM141.53-12.08Q141.53-18.65 144.06-21.6 146.58-24.55 151.96-24.55 157.33-24.55 159.78-21.65 162.23-18.75 162.23-12.13 162.23-5.5 159.83-2.5 157.43 0.5 151.98 0.5 146.53 0.5 144.03-2.5 141.53-5.5 141.53-12.08ZM153.56-16.8Q153.23-17.8 151.93-17.8 150.63-17.8 150.28-16.8 149.93-15.8 149.93-12.6L149.93-12.6 149.93-11.4Q149.93-7.85 150.28-6.8 150.63-5.75 151.91-5.75 153.18-5.75 153.53-6.8 153.88-7.85 153.88-11.1L153.88-11.1 153.88-12.55Q153.88-15.8 153.56-16.8ZM184.63-21.75L185.13-22.2Q187.88-24.55 191.18-24.55 194.48-24.55 195.81-23.03 197.13-21.5 197.13-18.45L197.13-18.45 197.13 0 188.63 0 188.63-15.6Q188.63-16.85 187.53-16.85L187.53-16.85Q186.13-16.85 185.18-16.15L185.18-16.15 185.18 0 176.68 0 176.68-15.6Q176.68-16.85 175.58-16.85L175.58-16.85Q174.18-16.85 173.23-16.15L173.23-16.15 173.23 0 164.83 0 164.83-23.95 172.48-23.95 172.98-22.2 173.18-22.2Q175.93-24.55 179.71-24.55 183.48-24.55 184.63-21.75L184.63-21.75ZM199.73-12.08Q199.73-18.65 202.25-21.6 204.78-24.55 210.15-24.55 215.53-24.55 217.98-21.65 220.43-18.75 220.43-12.13 220.43-5.5 218.03-2.5 215.63 0.5 210.18 0.5 204.73 0.5 202.23-2.5 199.73-5.5 199.73-12.08ZM211.75-16.8Q211.43-17.8 210.13-17.8 208.83-17.8 208.48-16.8 208.13-15.8 208.13-12.6L208.13-12.6 208.13-11.4Q208.13-7.85 208.48-6.8 208.83-5.75 210.1-5.75 211.38-5.75 211.73-6.8 212.08-7.85 212.08-11.1L212.08-11.1 212.08-12.55Q212.08-15.8 211.75-16.8ZM235.58-23.95L243.78-23.95 237.58 0.7Q236.63 4.4 234.78 5.88 232.93 7.35 228.73 7.35L228.73 7.35 223.73 7.35 222.98 0.9 225.78 0.9Q227.48 0.9 227.48-0.45L227.48-0.45Q227.48-0.75 227.28-1.75L227.28-1.75 221.53-23.95 230.43-23.95 232.68-9 233.13-9 235.58-23.95ZM263.32-17.7L263.32-17.7 263.07-7.35Q263.07-6.4 263.55-6.08 264.02-5.75 265.17-5.75L265.17-5.75 264.42 0.3Q261.52 0.5 261.22 0.5L261.22 0.5Q257.52 0.5 256.52-2.05L256.52-2.05 256.27-2.05Q254.42 0.5 250.57 0.5L250.57 0.5Q247.62 0.5 246.05-1.4 244.47-3.3 244.47-6.6L244.47-6.6Q244.47-10.75 247.05-12.35 249.62-13.95 255.17-14.45L255.17-14.45 255.17-15.65Q255.17-17.05 253.77-17.05L253.77-17.05Q251.37-17.05 246.27-15.6L246.27-15.6 245.02-22.9Q251.42-24.55 255.67-24.55 259.92-24.55 261.62-22.9 263.32-21.25 263.32-17.7ZM253.67-5.35L253.67-5.35Q255.52-5.35 255.52-7.3L255.52-7.3 255.52-9.75Q253.67-9.5 252.9-8.97 252.12-8.45 252.12-7.2L252.12-7.2Q252.12-5.35 253.67-5.35Z" opacity="1" transform="matrix(1,0,0,1,0,0)" fill="#130912" class="wordmark-text-0" data-fill-palette-color="primary" id="text-0"></path></svg></g></svg></g></svg></g></svg></g></svg></g><defs></defs></svg><rect width="395.52" height="58.850030211480366" fill="none" stroke="none" visibility="hidden"></rect></g></svg></g></svg>