<svg xmlns="http://www.w3.org/2000/svg" version="1.1" xmlns:xlink="http://www.w3.org/1999/xlink" xmlns:svgjs="http://svgjs.dev/svgjs" width="128" height="128" viewBox="0 0 128 128"><g transform="matrix(0.8046875,0,0,0.8046875,12.760752631578946,13.90128108198924)"><svg viewBox="0 0 95 93" data-background-color="#fafafa" preserveAspectRatio="xMidYMid meet" height="125" width="128" xmlns="http://www.w3.org/2000/svg" xmlns:xlink="http://www.w3.org/1999/xlink"><g id="tight-bounds" transform="matrix(1,0,0,1,-0.24049999999999727,-0.17959999999999354)"><svg viewBox="0 0 95.481 93.3592" height="93.3592" width="95.481"><g><svg viewBox="0 0 95.481 93.3592" height="93.3592" width="95.481"><g><svg viewBox="0 0 95.481 93.3592" height="93.3592" width="95.481"><g id="textblocktransform"><svg viewBox="0 0 95.481 93.3592" height="93.3592" width="95.481" id="textblock"><g><svg viewBox="0 0 95.481 93.3592" height="93.3592" width="95.481"><g><svg viewBox="0 0 95.481 93.3592" height="93.3592" width="95.481"><g><svg xmlns="http://www.w3.org/2000/svg" xmlns:xlink="http://www.w3.org/1999/xlink" version="1.1" x="0" y="0" viewBox="5 6 90 88" enable-background="new 0 0 100 100" xml:space="preserve" height="93.3592" width="95.481" class="icon-icon-0" data-fill-palette-color="accent" id="icon-0"><path d="M92.4 63.6L52.7 10.4 49.4 6l-3.2 4.5L7.6 65.4 5 69.1l4.1 2.1L51 92.9 53 94l2-1.3 36.4-23.4L95 67 92.4 63.6zM53.8 87.6L50.6 16l37.1 49.7L53.8 87.6z" fill="#006edc" data-fill-palette-color="accent"></path></svg></g></svg></g></svg></g></svg></g></svg></g></svg></g><defs></defs></svg><rect width="95.481" height="93.3592" fill="none" stroke="none" visibility="hidden"></rect></g></svg></g></svg>